<svg xmlns="http://www.w3.org/2000/svg" fill="none" viewBox="0 0 64 64">
  <g fill="#268462" id="brand-icon">
    <path d="M17.0647 0h32.8565c-.1457.291306.0757.369959.2913.410742 3.3529.667088 5.8261 4.136548 5.8057 7.757488-.0194 14.24297-.0194 28.48487 0 42.72587 0 .8565-.268 1.0662-1.0866 1.0633-5.0104-.035-10.018.0262-15.0255-.035-2.9597-.032-4.1745.1544-3.9618 3.9385v.2127c-.1282 3.6675-2.0013 6.2223-5.4707 7.4632-.2156.0758-.603 0-.3875.4516H25.6c.0292-.0199.0565-.0423.0816-.0671.0162-.0222.0308-.0455.0437-.0699-.8419-.4864-1.7479-.8884-2.514-1.4565-2.3596-1.777-3.2714-4.2502-3.2714-7.137V8.76832c0-1.74784-.0845-3.46946-.7632-5.12116-.536-1.32545-1.4245-2.41785-2.112-3.64716Zm14.9382 37.9572c-.0023.4982.1796.9797.5109 1.3519.3312.3721.7884.6086 1.2836.664.6612.0961 1.4827-.2622 1.9605.1747.4777.437.1077 1.2818.2155 1.9401.2913 1.7246 2.0217 2.4587 3.3209 1.3925.7924-.6496.7691-1.5702.6904-2.447-.0874-.9671.2389-1.5264 1.1186-2.0071 3.1432-1.7187 3.8686-6.2048 1.4973-8.8732-.5506-.6488-1.2325-1.1735-2.0008-1.5396-.7682-.366-1.6054-.5651-2.4561-.584-1.3342-.0554-2.2256-1.0545-2.1586-2.1469.067-1.0924.9467-1.8615 2.2867-1.8819 1.1653-.0204 2.345 0 3.519 0 1.2847-.0262 2.1994-.8739 2.211-1.9634 0-1.0225-.8739-1.9168-2.0391-2.0653-.6234-.0816-1.4129.2709-1.8323-.2098-.4195-.4806-.0874-1.2322-.1544-1.8614-.0243-.3913-.1609-.7673-.3934-1.083-.2325-.3157-.551-.5576-.9175-.6969-.3483-.1455-.7333-.1789-1.1014-.0953-.3681.0835-.701.2798-.9523.5614-.6613.6671-.7545 1.5206-.6613 2.38.1049.9496-.2068 1.4973-1.072 2.0012-2.2722 1.3313-3.3937 4.0638-2.7791 6.3592.7341 2.7442 2.9597 4.5619 5.7242 4.6784 1.2818.0525 2.1469.8536 2.1499 1.9896.0029 1.1361-.8215 1.9198-2.1615 1.9518-1.209.0291-2.4208-.0233-3.6268.0262-1.2847.0379-2.1586.871-2.1819 1.9838Z"/>
    <path d="M37.1183 63.9883c.603-1.1652 1.4827-2.1847 1.9779-3.4432.4641-1.2161.7582-2.4905.8739-3.787.0554-.5127.1777-.7603.7487-.7603 7.6575.0175 15.3179.0262 22.9812.0262.1004.0166.1983.0459.2913.0874v1.9197c-.2185-.1427-.3554.0204-.3962.1719-.6613 2.5926-2.2868 4.288-4.7716 5.2173-.1952.0728-.4923.2913-.1661.5826l-21.5391-.0146ZM10.8803 0c-.7079.463177-.0233.518525.2097.620482 1.264.533528 2.368 1.385648 3.2044 2.473188 1.0682 1.32942 1.6691 2.97347 1.71 4.67838.0204 1.09823-.0466 2.19937.0262 3.29465.0553.8361-.2913 1.005-1.0429.9992-4.5706-.0262-9.14409 0-13.7176 0-.41948 0-.850613-.0816-1.2584423.0991V5.33091c0 .17187.0961313.2913.2359583.201.162774-.13317.287401-.30704.36122-.50396C1.40701 2.95093 2.88103 1.53227 4.88521.632135 5.14448.515612 5.57852.489395 5.34548 0h5.53482Z"/>
  </g>
</svg>