<svg xmlns="http://www.w3.org/2000/svg" viewBox="0 0 256 136">
  <g id="brand-icon" fill="#268462">
    <path d="M113.065 10h32.856c-.145.2913.076.37.291.4107 3.353.6671 5.827 4.1366 5.806 7.7575-.019 14.243-.019 28.4849 0 42.7259 0 .8565-.268 1.0662-1.086 1.0633-5.011-.035-10.018.0262-15.026-.035-2.96-.032-4.174.1544-3.962 3.9385v.2127c-.128 3.6675-2.001 6.2223-5.47 7.4632-.216.0758-.603 0-.388.4516H121.6c.029-.0199.056-.0423.082-.0671.016-.0222.03-.0455.043-.0699-.842-.4864-1.748-.8884-2.514-1.4565-2.359-1.777-3.271-4.2502-3.271-7.137V18.7683c0-1.7478-.085-3.4694-.763-5.1211-.536-1.3255-1.425-2.4179-2.112-3.6472Zm14.938 37.9572c-.002.4982.18.9797.511 1.3519.331.3721.788.6086 1.283.664.662.0961 1.483-.2622 1.961.1747.478.437.108 1.2818.215 1.9401.292 1.7246 2.022 2.4587 3.321 1.3925.793-.6496.769-1.5702.691-2.447-.088-.9671.239-1.5264 1.118-2.0071 3.144-1.7187 3.869-6.2048 1.498-8.8732-.551-.6488-1.233-1.1735-2.001-1.5396-.768-.366-1.606-.5651-2.456-.584-1.335-.0554-2.226-1.0545-2.159-2.1469.067-1.0924.947-1.8615 2.287-1.8819 1.165-.0204 2.345 0 3.519 0 1.284-.0262 2.199-.8739 2.211-1.9634 0-1.0225-.874-1.9168-2.039-2.0653-.624-.0816-1.413.2709-1.833-.2098-.419-.4806-.087-1.2322-.154-1.8614-.024-.3913-.161-.7673-.393-1.083-.233-.3157-.551-.5576-.918-.6969-.348-.1455-.733-.1789-1.101-.0953-.368.0835-.701.2798-.953.5614-.661.6671-.754 1.5206-.661 2.38.105.9496-.207 1.4973-1.072 2.0012-2.272 1.3313-3.394 4.0638-2.779 6.3592.734 2.7442 2.96 4.5619 5.724 4.6784 1.282.0525 2.147.8536 2.15 1.9896.003 1.1361-.821 1.9198-2.161 1.9518-1.209.0291-2.421-.0233-3.627.0262-1.285.0379-2.159.871-2.182 1.9838Z"/>
    <path d="M133.118 73.9883c.603-1.1652 1.483-2.1848 1.978-3.4432.464-1.2161.758-2.4905.874-3.787.055-.5127.178-.7603.749-.7603 7.657.0175 15.318.0262 22.981.0262.1.0166.198.0459.291.0874v1.9197c-.218-.1427-.355.0204-.396.1719-.661 2.5926-2.287 4.288-4.772 5.2173-.195.0728-.492.2913-.166.5826l-21.539-.0146ZM106.88 10c-.708.4632-.023.5185.21.6205 1.264.5335 2.368 1.3856 3.204 2.4732 1.069 1.3294 1.67 2.9734 1.71 4.6784.021 1.0982-.046 2.1993.027 3.2946.055.8361-.292 1.005-1.043.9992-4.571-.0262-9.144 0-13.7179 0-.4195 0-.8506-.0816-1.2584.0991v-6.8341c0 .1719.0961.2913.2359.201.1628-.1332.2874-.307.3612-.504.7982-2.077 2.2722-3.4956 4.2762-4.3958.259-.1165.694-.1427.46-.6321h5.535Z"/>
  </g>
  <g id="text-dots" fill="#1A543F">
    <path d="M58.4692 88.8549c0 2.6861-2.1775 4.8636-4.8637 4.8636-2.6861 0-4.8636-2.1775-4.8636-4.8636 0-2.6861 2.1775-4.8636 4.8636-4.8636 2.6862 0 4.8637 2.1775 4.8637 4.8636ZM132.02 103.068c0 2.597-2.105 4.702-4.702 4.702s-4.702-2.105-4.702-4.702 2.105-4.702 4.702-4.702 4.702 2.105 4.702 4.702ZM182.076 88.8549c0 2.6861-2.178 4.8636-4.864 4.8636s-4.863-2.1775-4.863-4.8636c0-2.6861 2.177-4.8636 4.863-4.8636 2.686 0 4.864 2.1775 4.864 4.8636ZM212.686 102.833c0 2.597-2.105 4.702-4.702 4.702s-4.702-2.105-4.702-4.702 2.105-4.7022 4.702-4.7022 4.702 2.1052 4.702 4.7022Z"/>
  </g>
  <g id="text" fill="currentColor">
    <path d="M22.4023 86.9094h4.6203c-2.5517 0-4.6203 2.4578-4.6203 5.0096v33.9H10c2.5517 0 4.6201-2.458 4.6203-5.009V91.919c0-2.5518-2.0686-5.0096-4.6203-5.0096h12.4023Zm10.2851 38.9096h9.7274v-9.728c0 5.158-4.5699 9.728-9.7274 9.728ZM61.9224 125.818H45.6778c2.5519 0 4.6205-2.457 4.6205-5.009v-13.326c0-2.552-2.0686-5.01-4.6205-5.01h-.389c3.8584 0 6.9764-1.342 12.0131-3.8909v22.2269c0 2.552 2.0687 5.009 4.6205 5.009Zm37.1436 0H82.8214c2.5518 0 4.6204-2.457 4.6204-5.009v-19.18c0-2.0032-2.3572-3.436-3.8252-3.436 5.6742-.3891 10.8289 2.25 10.8289 10.051v12.565c0 2.552 2.0686 5.009 4.6205 5.009Zm-22.2565-5.009V98.5821c-5.0367 2.5489-8.1547 3.8909-12.0131 3.8909h.3891c2.5518 0 4.6204 2.458 4.6204 5.01v13.326c0 2.552-2.0686 5.009-4.6204 5.009H81.43c-2.5519 0-4.6205-2.457-4.6205-5.009ZM121.4 125.818h-2.895c-2.432 0-4.569-1.612-5.237-3.95l-5.232-18.312c-.723-2.528-3.544-3.8066-6.096-3.8066 0 0 2.74-1.1673 6.689-1.1673 2.953 0 5.549 1.9579 6.36 4.7979l6.411 22.438Zm20.887-14.007c0 9.317 3.35 14.007 7.004 14.007-7.736 0-14.397-4.354-14.397-14.007 0-9.653 6.661-14.007 14.397-14.007-3.654 0-7.004 4.69-7.004 14.007Zm9.338-14.007c3.653 0 7.004 4.69 7.004 14.007s-3.351 14.007-7.004 14.007c7.736 0 14.396-4.354 14.396-14.007 0-9.653-6.66-14.007-14.396-14.007ZM185.529 125.818h-16.245c2.552 0 4.621-2.457 4.621-5.009v-13.326c0-2.552-2.069-5.01-4.621-5.01h-.389c3.859 0 6.977-1.342 12.014-3.8909v22.2269c0 2.552 2.068 5.009 4.62 5.009Zm26.786-4.102c-2.535 2.535-6.037 4.102-9.905 4.102-7.736 0-14.007-6.271-14.007-14.007s6.271-14.007 14.007-14.007c-1.549 0-5.573 4.266-5.573 11.744 0 7.477 4.491 16.125 15.478 12.168ZM239.472 121.716c-2.535 2.535-6.037 4.102-9.905 4.102-7.736 0-14.007-6.271-14.007-14.007s6.271-14.007 14.007-14.007c-1.549 0-5.572 4.266-5.572 11.744 0 7.477 4.49 16.125 15.477 12.168Zm-5.155-10.27-5.86.365h13.519c0-8.695-5.801-14.007-11.217-14.007 3.791 1.0151 3.578 10.174 3.558 13.642Z"/>
  </g>
</svg>