<svg xmlns="http://www.w3.org/2000/svg" fill="none" viewBox="0 0 236 42">
  <g id="text-dots" fill="#1A543F">
    <path d="M48.4692 4.86363c0 2.68611-2.1775 4.86363-4.8637 4.86363-2.6861 0-4.8636-2.17752-4.8636-4.86363C38.7419 2.17752 40.9194 0 43.6055 0c2.6862 0 4.8637 2.17752 4.8637 4.86363ZM122.02 19.0769c0 2.5969-2.105 4.7021-4.702 4.7021s-4.702-2.1052-4.702-4.7021c0-2.5969 2.105-4.7021 4.702-4.7021s4.702 2.1052 4.702 4.7021ZM172.076 4.86363c0 2.68611-2.178 4.86363-4.864 4.86363s-4.863-2.17752-4.863-4.86363C162.349 2.17752 164.526 0 167.212 0c2.686 0 4.864 2.17752 4.864 4.86363ZM202.686 18.8416c0 2.5969-2.105 4.7021-4.702 4.7021s-4.702-2.1052-4.702-4.7021c0-2.5969 2.105-4.7021 4.702-4.7021s4.702 2.1052 4.702 4.7021Z"/>
  </g>
  <g id="text" fill="currentColor">
    <path d="M12.4023 2.91815h4.6203c-2.5517 0-4.6203 2.45774-4.6203 5.00956V41.8272H0c2.55169 0 4.62005-2.4573 4.62032-5.0088V7.92771c0-2.55182-2.06863-5.00956-4.62032-5.00956h12.4023ZM22.6874 41.8272h9.7274V32.1c0 5.1573-4.5699 9.7272-9.7274 9.7272ZM51.9224 41.8272H35.6778c2.5519 0 4.6205-2.4577 4.6205-5.0095V23.4914c0-2.5519-2.0686-5.0096-4.6205-5.0096h-.389c3.8584 0 6.9764-1.3422 12.0131-3.8909v22.2268c0 2.5518 2.0686 5.0095 4.6205 5.0095Zm37.1435 0H72.8214c2.5518 0 4.6204-2.4577 4.6204-5.0095V17.6379c0-2.0034-2.3572-3.4361-3.8252-3.4361 5.6742-.3891 10.8289 2.2503 10.8289 10.0507v12.5652c0 2.5518 2.0686 5.0095 4.6204 5.0095Zm-22.2564-5.0095V14.5909c-5.0367 2.5487-8.1547 3.8909-12.0131 3.8909h.3891c2.5518 0 4.6204 2.4577 4.6204 5.0095v13.3264c0 2.5518-2.0686 5.0095-4.6204 5.0095H71.43c-2.5519 0-4.6205-2.4577-4.6205-5.0095ZM111.4 41.8272h-2.895c-2.432 0-4.569-1.6123-5.237-3.9508l-5.2322-18.3119h-.0001c-.7223-2.528-3.544-3.8064-6.0958-3.8064 0 0 2.7403-1.1672 6.6891-1.1672 2.953 0 5.549 1.9577 6.36 4.7973l6.411 22.439ZM132.287 27.82c0 9.3172 3.35 14.0072 7.004 14.0072-7.736 0-14.397-4.3542-14.397-14.0072 0-9.6531 6.661-14.0073 14.397-14.0073-3.654 0-7.004 4.6901-7.004 14.0073Zm9.338-14.0073c3.653 0 7.004 4.6901 7.004 14.0073s-3.351 14.0072-7.004 14.0072c7.736 0 14.396-4.3542 14.396-14.0072 0-9.6531-6.66-14.0073-14.396-14.0073ZM175.529 41.8272h-16.245c2.552 0 4.621-2.4577 4.621-5.0095V23.4914c0-2.5519-2.069-5.0096-4.621-5.0096h-.389c3.859 0 6.977-1.3422 12.014-3.8909v22.2268c0 2.5518 2.068 5.0095 4.62 5.0095Zm26.786-4.1026c-2.535 2.5348-6.037 4.1026-9.905 4.1026-7.736 0-14.007-6.2712-14.007-14.0072 0-7.736 6.271-14.0073 14.007-14.0073-1.549 0-5.573 4.2662-5.573 11.7438s4.491 16.1255 15.478 12.1681ZM229.472 37.7246c-2.535 2.5348-6.037 4.1026-9.905 4.1026-7.736 0-14.007-6.2712-14.007-14.0072 0-7.736 6.271-14.0073 14.007-14.0073-1.549 0-5.572 4.2662-5.572 11.7438s4.49 16.1255 15.477 12.1681Zm-5.155-10.2696-5.86.365h13.519c0-8.6949-5.801-14.0073-11.217-14.0073 3.791 1.0152 3.578 10.1736 3.558 13.6423Z"/>
  </g>
</svg>